<mxfile host="app.diagrams.net" agent="Mozilla/5.0 (Windows NT 10.0; Win64; x64) AppleWebKit/537.36 (KHTML, like Gecko) Chrome/128.0.0.0 Safari/537.36" version="24.7.8">
  <diagram name="第 1 页" id="zKvOFfaTHT5-SVP7cOSt">
    <mxGraphModel dx="1434" dy="746" grid="1" gridSize="10" guides="1" tooltips="1" connect="1" arrows="1" fold="1" page="1" pageScale="1" pageWidth="827" pageHeight="1169" math="0" shadow="0">
      <root>
        <mxCell id="0" />
        <mxCell id="1" parent="0" />
        <mxCell id="U46tP_3I2k7W18DiitfZ-1" value="" style="rounded=1;whiteSpace=wrap;html=1;" vertex="1" parent="1">
          <mxGeometry x="10" y="110" width="540" height="290" as="geometry" />
        </mxCell>
        <mxCell id="U46tP_3I2k7W18DiitfZ-2" value="&lt;p style=&quot;margin: 0pt 0pt 0.0001pt; text-align: justify;&quot; class=&quot;MsoNormal&quot;&gt;&lt;font face=&quot;等线&quot; style=&quot;font-size: 24px;&quot;&gt;语言模型&lt;/font&gt;&lt;/p&gt;" style="rounded=1;whiteSpace=wrap;html=1;" vertex="1" parent="1">
          <mxGeometry x="60" y="190" width="190" height="60" as="geometry" />
        </mxCell>
        <mxCell id="U46tP_3I2k7W18DiitfZ-5" value="&lt;p style=&quot;margin: 0pt 0pt 0.0001pt; text-align: justify; font-size: 25px;&quot; class=&quot;MsoNormal&quot;&gt;&lt;font face=&quot;等线&quot;&gt;任务一&lt;/font&gt;&lt;/p&gt;" style="text;html=1;align=center;verticalAlign=middle;whiteSpace=wrap;rounded=0;" vertex="1" parent="1">
          <mxGeometry x="30" y="120" width="90" height="30" as="geometry" />
        </mxCell>
        <mxCell id="U46tP_3I2k7W18DiitfZ-6" value="&lt;p style=&quot;margin: 0pt 0pt 0.0001pt; text-align: justify;&quot; class=&quot;MsoNormal&quot;&gt;&lt;span style=&quot;font-size: 24px;&quot;&gt;&lt;font face=&quot;Arial&quot;&gt;abc&lt;/font&gt;&lt;/span&gt;&lt;/p&gt;" style="rounded=1;whiteSpace=wrap;html=1;" vertex="1" parent="1">
          <mxGeometry x="297.5" y="190" width="190" height="60" as="geometry" />
        </mxCell>
        <mxCell id="U46tP_3I2k7W18DiitfZ-7" value="" style="rounded=1;whiteSpace=wrap;html=1;" vertex="1" parent="1">
          <mxGeometry x="600" y="110" width="500" height="290" as="geometry" />
        </mxCell>
        <mxCell id="U46tP_3I2k7W18DiitfZ-8" value="&lt;p style=&quot;margin: 0pt 0pt 0.0001pt; text-align: justify;&quot; class=&quot;MsoNormal&quot;&gt;&lt;font face=&quot;等线&quot; style=&quot;font-size: 24px;&quot;&gt;数据抽取阶段&lt;/font&gt;&lt;/p&gt;" style="rounded=1;whiteSpace=wrap;html=1;" vertex="1" parent="1">
          <mxGeometry x="647" y="190" width="190" height="60" as="geometry" />
        </mxCell>
        <mxCell id="U46tP_3I2k7W18DiitfZ-9" value="&lt;p style=&quot;margin: 0pt 0pt 0.0001pt; text-align: justify; font-size: 25px;&quot; class=&quot;MsoNormal&quot;&gt;&lt;font face=&quot;等线&quot;&gt;任务二&lt;/font&gt;&lt;/p&gt;" style="text;html=1;align=center;verticalAlign=middle;whiteSpace=wrap;rounded=0;" vertex="1" parent="1">
          <mxGeometry x="620" y="120" width="120" height="30" as="geometry" />
        </mxCell>
        <mxCell id="U46tP_3I2k7W18DiitfZ-10" value="&lt;p style=&quot;margin: 0pt 0pt 0.0001pt; text-align: justify;&quot; class=&quot;MsoNormal&quot;&gt;&lt;span style=&quot;font-size: 24px;&quot;&gt;&lt;font face=&quot;Arial&quot;&gt;abc&lt;/font&gt;&lt;/span&gt;&lt;/p&gt;" style="rounded=1;whiteSpace=wrap;html=1;" vertex="1" parent="1">
          <mxGeometry x="870" y="190" width="190" height="60" as="geometry" />
        </mxCell>
        <mxCell id="U46tP_3I2k7W18DiitfZ-11" value="" style="rounded=1;whiteSpace=wrap;html=1;" vertex="1" parent="1">
          <mxGeometry y="470" width="750" height="160" as="geometry" />
        </mxCell>
        <mxCell id="U46tP_3I2k7W18DiitfZ-12" value="&lt;p style=&quot;margin: 0pt 0pt 0.0001pt; text-align: justify;&quot; class=&quot;MsoNormal&quot;&gt;&lt;font face=&quot;等线&quot; style=&quot;font-size: 24px;&quot;&gt;数据抽取阶段&lt;/font&gt;&lt;/p&gt;" style="rounded=1;whiteSpace=wrap;html=1;" vertex="1" parent="1">
          <mxGeometry x="160" y="560" width="190" height="60" as="geometry" />
        </mxCell>
        <mxCell id="U46tP_3I2k7W18DiitfZ-13" value="&lt;p style=&quot;margin: 0pt 0pt 0.0001pt; text-align: justify; font-size: 25px;&quot; class=&quot;MsoNormal&quot;&gt;&lt;font face=&quot;等线&quot;&gt;任务三&lt;/font&gt;&lt;/p&gt;" style="text;html=1;align=center;verticalAlign=middle;whiteSpace=wrap;rounded=0;" vertex="1" parent="1">
          <mxGeometry x="100" y="500" width="565" height="30" as="geometry" />
        </mxCell>
        <mxCell id="U46tP_3I2k7W18DiitfZ-14" value="&lt;p style=&quot;margin: 0pt 0pt 0.0001pt; text-align: justify;&quot; class=&quot;MsoNormal&quot;&gt;&lt;span style=&quot;font-size: 24px;&quot;&gt;&lt;font face=&quot;Arial&quot;&gt;abc&lt;/font&gt;&lt;/span&gt;&lt;/p&gt;" style="rounded=1;whiteSpace=wrap;html=1;" vertex="1" parent="1">
          <mxGeometry x="400" y="560" width="190" height="60" as="geometry" />
        </mxCell>
        <mxCell id="U46tP_3I2k7W18DiitfZ-17" style="edgeStyle=orthogonalEdgeStyle;rounded=0;orthogonalLoop=1;jettySize=auto;html=1;exitX=0.5;exitY=1;exitDx=0;exitDy=0;entryX=0.5;entryY=0;entryDx=0;entryDy=0;shape=flexArrow;" edge="1" parent="1" source="U46tP_3I2k7W18DiitfZ-15" target="U46tP_3I2k7W18DiitfZ-1">
          <mxGeometry relative="1" as="geometry" />
        </mxCell>
        <mxCell id="U46tP_3I2k7W18DiitfZ-15" value="&lt;font style=&quot;font-size: 24px;&quot; face=&quot;等线&quot;&gt;研究内容&lt;/font&gt;" style="rounded=1;whiteSpace=wrap;html=1;" vertex="1" parent="1">
          <mxGeometry x="185" width="190" height="60" as="geometry" />
        </mxCell>
        <mxCell id="U46tP_3I2k7W18DiitfZ-18" style="edgeStyle=orthogonalEdgeStyle;rounded=0;orthogonalLoop=1;jettySize=auto;html=1;exitX=0.5;exitY=1;exitDx=0;exitDy=0;entryX=0.5;entryY=0;entryDx=0;entryDy=0;shape=flexArrow;" edge="1" parent="1" source="U46tP_3I2k7W18DiitfZ-16" target="U46tP_3I2k7W18DiitfZ-7">
          <mxGeometry relative="1" as="geometry" />
        </mxCell>
        <mxCell id="U46tP_3I2k7W18DiitfZ-16" value="&lt;font style=&quot;font-size: 24px;&quot; face=&quot;等线&quot;&gt;汇交数据模板&lt;/font&gt;" style="rounded=1;whiteSpace=wrap;html=1;" vertex="1" parent="1">
          <mxGeometry x="755" width="190" height="60" as="geometry" />
        </mxCell>
      </root>
    </mxGraphModel>
  </diagram>
</mxfile>
